<?xml version="1.0" encoding="utf-8"?>
<!-- Generator: Adobe Illustrator 16.0.0, SVG Export Plug-In . SVG Version: 6.00 Build 0)  -->
<!DOCTYPE svg PUBLIC "-//W3C//DTD SVG 1.1//EN" "http://www.w3.org/Graphics/SVG/1.1/DTD/svg11.dtd">
<svg version="1.1" id="min" xmlns="http://www.w3.org/2000/svg" xmlns:xlink="http://www.w3.org/1999/xlink"
	width="100%" height="100%" viewBox="0 0 354 220.037" preserveAspectRatio="xMidYMid slice" xml:space="preserve">
<defs>
<style>
@import url('../css/GenJyuu.css');
</style>
</defs>
<path fill="#F17C67" d="M33.267,95.091c0,0,10.53-8.156,22.113-8.518c11.583-0.359,38.171,5.76,48.569,8.518
	c10.398,2.76,34.221,9.117,52.121,8.758s37.098-14.338,72.92-14.943c39.62-0.67,38.302,10.486,52.384,10.496
	c14.085,0.008,28.542-8.75,37.491-8.852l-0.241,17.105H33.541L33.267,95.091"/>
<path fill="#B54E40" d="M318.797,178.95c0,4.193-2.538,7.593-5.669,7.593H39.072c-3.131,0-5.67-3.399-5.67-7.593V90.886
	c0-4.193,2.539,10.406,5.67,10.406h274.056c1.899,0,3.58,1.248,4.608,3.168c0.668,1.246,1.061-10.227,1.061-8.574V178.95z"/>
<image width="354" height="169" y="51.0371" xlink:href="./min_bgblur.png"/>
<g fill="#EFEFEF">
	<path d="M132.356,39.146c0,0.694-0.562,1.256-1.255,1.256l0,0c-0.693,0-1.256-0.562-1.256-1.256l0,0
		c0-0.692,0.563-1.255,1.256-1.255l0,0C131.795,37.892,132.356,38.454,132.356,39.146L132.356,39.146z"/>
	<path d="M140.42,39.146c0,0.693-0.563,1.256-1.254,1.256l0,0c-0.694,0-1.256-0.563-1.256-1.256l0,0
		c0-0.692,0.562-1.255,1.256-1.255l0,0C139.857,37.892,140.42,38.454,140.42,39.146L140.42,39.146z"/>
	<path d="M124.59,46.26c0,0.692-0.563,1.255-1.255,1.255l0,0c-0.694,0-1.255-0.563-1.255-1.255l0,0
		c0-0.693,0.561-1.254,1.255-1.254l0,0C124.027,45.006,124.59,45.566,124.59,46.26L124.59,46.26z"/>
	<path d="M132.651,46.26c0,0.693-0.562,1.255-1.255,1.255l0,0c-0.692,0-1.256-0.562-1.256-1.255l0,0
		c0-0.693,0.563-1.254,1.256-1.254l0,0C132.09,45.006,132.651,45.566,132.651,46.26L132.651,46.26z"/>
	<path d="M148.777,46.26c0,0.692-0.563,1.255-1.254,1.255l0,0c-0.695,0-1.255-0.563-1.255-1.255l0,0
		c0-0.693,0.56-1.254,1.255-1.254l0,0C148.215,45.006,148.777,45.566,148.777,46.26L148.777,46.26z"/>
	<path d="M140.713,46.26c0,0.692-0.559,1.255-1.252,1.255l0,0c-0.694,0-1.254-0.563-1.254-1.255l0,0
		c0-0.693,0.56-1.254,1.254-1.254l0,0C140.154,45.006,140.713,45.566,140.713,46.26L140.713,46.26z"/>
	<path d="M124.59,54.125c0,0.692-0.563,1.255-1.255,1.255l0,0c-0.694,0-1.255-0.563-1.255-1.255l0,0
		c0-0.693,0.561-1.254,1.255-1.254l0,0C124.027,52.871,124.59,53.432,124.59,54.125L124.59,54.125z"/>
	<path d="M132.651,54.125c0,0.693-0.562,1.255-1.255,1.255l0,0c-0.692,0-1.256-0.562-1.256-1.255l0,0
		c0-0.693,0.563-1.254,1.256-1.254l0,0C132.09,52.871,132.651,53.432,132.651,54.125L132.651,54.125z"/>
	<path d="M148.777,54.125c0,0.692-0.563,1.255-1.254,1.255l0,0c-0.695,0-1.255-0.563-1.255-1.255l0,0
		c0-0.693,0.56-1.254,1.255-1.254l0,0C148.215,52.871,148.777,53.432,148.777,54.125L148.777,54.125z"/>
	<path d="M140.713,54.125c0,0.692-0.559,1.255-1.252,1.255l0,0c-0.694,0-1.254-0.563-1.254-1.255l0,0
		c0-0.693,0.56-1.254,1.254-1.254l0,0C140.154,52.871,140.713,53.432,140.713,54.125L140.713,54.125z"/>
	<path d="M156.84,54.125c0,0.693-0.562,1.255-1.256,1.255l0,0c-0.693,0-1.254-0.562-1.254-1.255l0,0
		c0-0.693,0.561-1.254,1.254-1.254l0,0C156.278,52.871,156.84,53.432,156.84,54.125L156.84,54.125z"/>
	<path d="M172.965,54.125c0,0.692-0.563,1.255-1.255,1.255l0,0c-0.694,0-1.257-0.563-1.257-1.255l0,0
		c0-0.693,0.563-1.254,1.257-1.254l0,0C172.402,52.871,172.965,53.432,172.965,54.125L172.965,54.125z"/>
	<path d="M164.902,54.125c0,0.692-0.563,1.255-1.254,1.255l0,0c-0.695,0-1.257-0.563-1.257-1.255l0,0
		c0-0.693,0.562-1.254,1.257-1.254l0,0C164.34,52.871,164.902,53.432,164.902,54.125L164.902,54.125z"/>
	<path d="M180.753,54.125c0,0.693-0.562,1.255-1.255,1.255l0,0c-0.692,0-1.255-0.562-1.255-1.255l0,0
		c0-0.693,0.563-1.254,1.255-1.254l0,0C180.191,52.871,180.753,53.432,180.753,54.125L180.753,54.125z"/>
	<path d="M196.877,54.125c0,0.692-0.561,1.255-1.254,1.255l0,0c-0.693,0-1.256-0.563-1.256-1.255l0,0
		c0-0.693,0.563-1.254,1.256-1.254l0,0C196.316,52.871,196.877,53.432,196.877,54.125L196.877,54.125z"/>
	<path d="M188.816,54.125c0,0.692-0.563,1.255-1.254,1.255l0,0c-0.696,0-1.258-0.563-1.258-1.255l0,0
		c0-0.693,0.562-1.254,1.258-1.254l0,0C188.254,52.871,188.816,53.432,188.816,54.125L188.816,54.125z"/>
	<path d="M204.938,54.125c0,0.693-0.56,1.255-1.255,1.255l0,0c-0.691,0-1.253-0.562-1.253-1.255l0,0
		c0-0.693,0.562-1.254,1.253-1.254l0,0C204.379,52.871,204.938,53.432,204.938,54.125L204.938,54.125z"/>
	<path d="M221.066,54.125c0,0.692-0.563,1.255-1.255,1.255l0,0c-0.694,0-1.255-0.563-1.255-1.255l0,0
		c0-0.693,0.561-1.254,1.255-1.254l0,0C220.503,52.871,221.066,53.432,221.066,54.125L221.066,54.125z"/>
	<path d="M213.001,54.125c0,0.692-0.56,1.255-1.252,1.255l0,0c-0.694,0-1.255-0.563-1.255-1.255l0,0
		c0-0.693,0.561-1.254,1.255-1.254l0,0C212.441,52.871,213.001,53.432,213.001,54.125L213.001,54.125z"/>
	<path d="M229.128,54.125c0,0.693-0.562,1.255-1.255,1.255l0,0c-0.693,0-1.254-0.562-1.254-1.255l0,0
		c0-0.693,0.561-1.254,1.254-1.254l0,0C228.566,52.871,229.128,53.432,229.128,54.125L229.128,54.125z"/>
	<path d="M245.253,54.125c0,0.692-0.563,1.255-1.254,1.255l0,0c-0.696,0-1.257-0.563-1.257-1.255l0,0
		c0-0.693,0.561-1.254,1.257-1.254l0,0C244.689,52.871,245.253,53.432,245.253,54.125L245.253,54.125z"/>
	<path d="M237.191,54.125c0,0.692-0.563,1.255-1.255,1.255l0,0c-0.696,0-1.258-0.563-1.258-1.255l0,0
		c0-0.693,0.562-1.254,1.258-1.254l0,0C236.629,52.871,237.191,53.432,237.191,54.125L237.191,54.125z"/>
	<path d="M253.336,54.125c0,0.693-0.56,1.255-1.254,1.255l0,0c-0.693,0-1.254-0.562-1.254-1.255l0,0
		c0-0.693,0.561-1.254,1.254-1.254l0,0C252.776,52.871,253.336,53.432,253.336,54.125L253.336,54.125z"/>
	<path d="M269.463,54.125c0,0.692-0.563,1.255-1.255,1.255l0,0c-0.695,0-1.255-0.563-1.255-1.255l0,0
		c0-0.693,0.56-1.254,1.255-1.254l0,0C268.9,52.871,269.463,53.432,269.463,54.125L269.463,54.125z"/>
	<path d="M261.399,54.125c0,0.692-0.562,1.255-1.254,1.255l0,0c-0.694,0-1.256-0.563-1.256-1.255l0,0
		c0-0.693,0.562-1.254,1.256-1.254l0,0C260.838,52.871,261.399,53.432,261.399,54.125L261.399,54.125z"/>
	<path d="M277.522,54.125c0,0.693-0.56,1.255-1.255,1.255l0,0c-0.691,0-1.254-0.562-1.254-1.255l0,0
		c0-0.693,0.563-1.254,1.254-1.254l0,0C276.963,52.871,277.522,53.432,277.522,54.125L277.522,54.125z"/>
	<path d="M285.585,54.125c0,0.692-0.559,1.255-1.251,1.255l0,0c-0.696,0-1.256-0.563-1.256-1.255l0,0
		c0-0.693,0.56-1.254,1.256-1.254l0,0C285.026,52.871,285.585,53.432,285.585,54.125L285.585,54.125z"/>
	<path d="M52.549,61.514c0,0.692-0.563,1.257-1.256,1.257l0,0c-0.693,0-1.254-0.564-1.254-1.257l0,0
		c0-0.693,0.561-1.256,1.254-1.256l0,0C51.986,60.258,52.549,60.82,52.549,61.514L52.549,61.514z"/>
	<path d="M60.578,61.514c0,0.693-0.561,1.257-1.255,1.257l0,0c-0.692,0-1.255-0.563-1.255-1.257l0,0
		c0-0.693,0.563-1.256,1.255-1.256l0,0C60.018,60.258,60.578,60.82,60.578,61.514L60.578,61.514z"/>
	<path d="M76.637,61.514c0,0.692-0.563,1.257-1.254,1.257l0,0c-0.695,0-1.256-0.564-1.256-1.257l0,0
		c0-0.693,0.561-1.256,1.256-1.256l0,0C76.074,60.258,76.637,60.82,76.637,61.514L76.637,61.514z"/>
	<path d="M84.666,61.514c0,0.693-0.562,1.257-1.256,1.257l0,0c-0.693,0-1.254-0.563-1.254-1.257l0,0
		c0-0.693,0.561-1.256,1.254-1.256l0,0C84.104,60.258,84.666,60.82,84.666,61.514L84.666,61.514z"/>
	<path d="M100.725,61.514c0,0.692-0.561,1.257-1.254,1.257l0,0c-0.693,0-1.256-0.564-1.256-1.257l0,0
		c0-0.693,0.563-1.256,1.256-1.256l0,0C100.164,60.258,100.725,60.82,100.725,61.514L100.725,61.514z"/>
	<path d="M92.695,61.514c0,0.692-0.561,1.257-1.254,1.257l0,0c-0.694,0-1.256-0.564-1.256-1.257l0,0
		c0-0.693,0.562-1.256,1.256-1.256l0,0C92.135,60.258,92.695,60.82,92.695,61.514L92.695,61.514z"/>
	<path d="M36.49,69.66c0,0.694-0.562,1.256-1.256,1.256l0,0c-0.693,0-1.254-0.562-1.254-1.256l0,0
		c0-0.691,0.561-1.253,1.254-1.253l0,0C35.929,68.407,36.49,68.969,36.49,69.66L36.49,69.66z"/>
	<path d="M52.615,69.66c0,0.693-0.563,1.256-1.256,1.256l0,0c-0.693,0-1.254-0.563-1.254-1.256l0,0
		c0-0.691,0.561-1.253,1.254-1.253l0,0C52.053,68.407,52.615,68.969,52.615,69.66L52.615,69.66z"/>
	<path d="M44.553,69.66c0,0.693-0.563,1.256-1.254,1.256l0,0c-0.694,0-1.256-0.563-1.256-1.256l0,0
		c0-0.691,0.562-1.253,1.256-1.253l0,0C43.99,68.407,44.553,68.969,44.553,69.66L44.553,69.66z"/>
	<path d="M60.676,69.66c0,0.694-0.561,1.256-1.255,1.256l0,0c-0.692,0-1.255-0.562-1.255-1.256l0,0
		c0-0.691,0.563-1.253,1.255-1.253l0,0C60.115,68.407,60.676,68.969,60.676,69.66L60.676,69.66z"/>
	<path d="M76.803,69.66c0,0.693-0.562,1.256-1.254,1.256l0,0c-0.695,0-1.256-0.563-1.256-1.256l0,0
		c0-0.691,0.561-1.253,1.256-1.253l0,0C76.241,68.407,76.803,68.969,76.803,69.66L76.803,69.66z"/>
	<path d="M68.739,69.66c0,0.693-0.562,1.256-1.253,1.256l0,0c-0.694,0-1.256-0.563-1.256-1.256l0,0
		c0-0.691,0.562-1.253,1.256-1.253l0,0C68.178,68.407,68.739,68.969,68.739,69.66L68.739,69.66z"/>
	<path d="M84.865,69.66c0,0.694-0.563,1.256-1.256,1.256l0,0c-0.692,0-1.254-0.562-1.254-1.256l0,0
		c0-0.691,0.562-1.253,1.254-1.253l0,0C84.303,68.407,84.865,68.969,84.865,69.66L84.865,69.66z"/>
	<path d="M100.989,69.66c0,0.693-0.562,1.256-1.253,1.256l0,0c-0.695,0-1.258-0.563-1.258-1.256l0,0
		c0-0.691,0.563-1.253,1.258-1.253l0,0C100.428,68.407,100.989,68.969,100.989,69.66L100.989,69.66z"/>
	<path d="M92.928,69.66c0,0.693-0.563,1.256-1.255,1.256l0,0c-0.693,0-1.255-0.563-1.255-1.256l0,0
		c0-0.691,0.562-1.253,1.255-1.253l0,0C92.365,68.407,92.928,68.969,92.928,69.66L92.928,69.66z"/>
	<path d="M36.49,77.525c0,0.694-0.562,1.255-1.256,1.255l0,0c-0.693,0-1.254-0.561-1.254-1.255l0,0
		c0-0.692,0.561-1.254,1.254-1.254l0,0C35.929,76.271,36.49,76.833,36.49,77.525L36.49,77.525z"/>
	<path d="M52.615,77.525c0,0.693-0.563,1.255-1.256,1.255l0,0c-0.693,0-1.254-0.562-1.254-1.255l0,0
		c0-0.692,0.561-1.254,1.254-1.254l0,0C52.053,76.271,52.615,76.833,52.615,77.525L52.615,77.525z"/>
	<path d="M44.553,77.525c0,0.693-0.563,1.255-1.254,1.255l0,0c-0.694,0-1.256-0.562-1.256-1.255l0,0
		c0-0.692,0.562-1.254,1.256-1.254l0,0C43.99,76.271,44.553,76.833,44.553,77.525L44.553,77.525z"/>
	<path d="M60.676,77.525c0,0.694-0.561,1.255-1.255,1.255l0,0c-0.692,0-1.255-0.561-1.255-1.255l0,0
		c0-0.692,0.563-1.254,1.255-1.254l0,0C60.115,76.271,60.676,76.833,60.676,77.525L60.676,77.525z"/>
	<path d="M76.803,77.525c0,0.693-0.562,1.255-1.254,1.255l0,0c-0.695,0-1.256-0.562-1.256-1.255l0,0
		c0-0.692,0.561-1.254,1.256-1.254l0,0C76.241,76.271,76.803,76.833,76.803,77.525L76.803,77.525z"/>
	<path d="M68.739,77.525c0,0.693-0.562,1.255-1.253,1.255l0,0c-0.694,0-1.256-0.562-1.256-1.255l0,0
		c0-0.692,0.562-1.254,1.256-1.254l0,0C68.178,76.271,68.739,76.833,68.739,77.525L68.739,77.525z"/>
	<path d="M84.865,77.525c0,0.694-0.563,1.255-1.256,1.255l0,0c-0.692,0-1.254-0.561-1.254-1.255l0,0
		c0-0.692,0.562-1.254,1.254-1.254l0,0C84.303,76.271,84.865,76.833,84.865,77.525L84.865,77.525z"/>
	<path d="M100.989,77.525c0,0.693-0.562,1.255-1.253,1.255l0,0c-0.695,0-1.258-0.562-1.258-1.255l0,0
		c0-0.692,0.563-1.254,1.258-1.254l0,0C100.428,76.271,100.989,76.833,100.989,77.525L100.989,77.525z"/>
	<path d="M92.928,77.525c0,0.693-0.563,1.255-1.255,1.255l0,0c-0.693,0-1.255-0.562-1.255-1.255l0,0
		c0-0.692,0.562-1.254,1.255-1.254l0,0C92.365,76.271,92.928,76.833,92.928,77.525L92.928,77.525z"/>
	<path d="M36.49,85.389c0,0.696-0.562,1.258-1.256,1.258l0,0c-0.693,0-1.254-0.562-1.254-1.258l0,0
		c0-0.692,0.561-1.254,1.254-1.254l0,0C35.929,84.135,36.49,84.696,36.49,85.389L36.49,85.389z"/>
	<path d="M52.615,85.389c0,0.694-0.563,1.258-1.256,1.258l0,0c-0.693,0-1.254-0.563-1.254-1.258l0,0
		c0-0.692,0.561-1.254,1.254-1.254l0,0C52.053,84.135,52.615,84.696,52.615,85.389L52.615,85.389z"/>
	<path d="M44.553,85.389c0,0.694-0.563,1.258-1.254,1.258l0,0c-0.694,0-1.256-0.563-1.256-1.258l0,0
		c0-0.692,0.562-1.254,1.256-1.254l0,0C43.99,84.135,44.553,84.696,44.553,85.389L44.553,85.389z"/>
	<path d="M60.676,85.389c0,0.696-0.561,1.258-1.255,1.258l0,0c-0.692,0-1.255-0.562-1.255-1.258l0,0
		c0-0.692,0.563-1.254,1.255-1.254l0,0C60.115,84.135,60.676,84.696,60.676,85.389L60.676,85.389z"/>
	<path d="M76.803,85.389c0,0.694-0.562,1.258-1.254,1.258l0,0c-0.695,0-1.256-0.563-1.256-1.258l0,0
		c0-0.692,0.561-1.254,1.256-1.254l0,0C76.241,84.135,76.803,84.696,76.803,85.389L76.803,85.389z"/>
	<path d="M68.739,85.389c0,0.694-0.562,1.258-1.253,1.258l0,0c-0.694,0-1.256-0.563-1.256-1.258l0,0
		c0-0.692,0.562-1.254,1.256-1.254l0,0C68.178,84.135,68.739,84.696,68.739,85.389L68.739,85.389z"/>
	<path d="M84.865,85.389c0,0.696-0.563,1.258-1.256,1.258l0,0c-0.692,0-1.254-0.562-1.254-1.258l0,0
		c0-0.692,0.562-1.254,1.254-1.254l0,0C84.303,84.135,84.865,84.696,84.865,85.389L84.865,85.389z"/>
	<path d="M100.989,85.389c0,0.694-0.562,1.258-1.253,1.258l0,0c-0.695,0-1.258-0.563-1.258-1.258l0,0
		c0-0.692,0.563-1.254,1.258-1.254l0,0C100.428,84.135,100.989,84.696,100.989,85.389L100.989,85.389z"/>
	<path d="M92.928,85.389c0,0.694-0.563,1.258-1.255,1.258l0,0c-0.693,0-1.255-0.563-1.255-1.258l0,0
		c0-0.692,0.562-1.254,1.255-1.254l0,0C92.365,84.135,92.928,84.696,92.928,85.389L92.928,85.389z"/>
	<path d="M108.754,61.514c0,0.693-0.561,1.257-1.256,1.257l0,0c-0.693,0-1.254-0.563-1.254-1.257l0,0
		c0-0.693,0.561-1.256,1.254-1.256l0,0C108.193,60.258,108.754,60.82,108.754,61.514L108.754,61.514z"/>
	<path d="M124.813,61.514c0,0.692-0.562,1.257-1.254,1.257l0,0c-0.695,0-1.256-0.564-1.256-1.257l0,0
		c0-0.693,0.561-1.256,1.256-1.256l0,0C124.251,60.258,124.813,60.82,124.813,61.514L124.813,61.514z"/>
	<path d="M116.783,61.514c0,0.692-0.562,1.257-1.255,1.257l0,0c-0.693,0-1.255-0.564-1.255-1.257l0,0
		c0-0.693,0.562-1.256,1.255-1.256l0,0C116.222,60.258,116.783,60.82,116.783,61.514L116.783,61.514z"/>
	<path d="M132.842,61.514c0,0.693-0.563,1.257-1.256,1.257l0,0c-0.691,0-1.254-0.563-1.254-1.257l0,0
		c0-0.693,0.563-1.256,1.254-1.256l0,0C132.279,60.258,132.842,60.82,132.842,61.514L132.842,61.514z"/>
	<path d="M148.9,61.514c0,0.692-0.563,1.257-1.254,1.257l0,0c-0.695,0-1.256-0.564-1.256-1.257l0,0
		c0-0.693,0.561-1.256,1.256-1.256l0,0C148.338,60.258,148.9,60.82,148.9,61.514L148.9,61.514z"/>
	<path d="M140.871,61.514c0,0.692-0.562,1.257-1.254,1.257l0,0c-0.694,0-1.256-0.564-1.256-1.257l0,0
		c0-0.693,0.562-1.256,1.256-1.256l0,0C140.31,60.258,140.871,60.82,140.871,61.514L140.871,61.514z"/>
	<path d="M156.93,61.514c0,0.693-0.563,1.257-1.256,1.257l0,0c-0.693,0-1.254-0.563-1.254-1.257l0,0
		c0-0.693,0.561-1.256,1.254-1.256l0,0C156.367,60.258,156.93,60.82,156.93,61.514L156.93,61.514z"/>
	<path d="M172.988,61.514c0,0.692-0.561,1.257-1.254,1.257l0,0c-0.694,0-1.256-0.564-1.256-1.257l0,0
		c0-0.693,0.562-1.256,1.256-1.256l0,0C172.428,60.258,172.988,60.82,172.988,61.514L172.988,61.514z"/>
	<path d="M164.959,61.514c0,0.692-0.562,1.257-1.254,1.257l0,0c-0.695,0-1.256-0.564-1.256-1.257l0,0
		c0-0.693,0.561-1.256,1.256-1.256l0,0C164.397,60.258,164.959,60.82,164.959,61.514L164.959,61.514z"/>
	<path d="M108.465,69.66c0,0.694-0.561,1.256-1.256,1.256l0,0c-0.693,0-1.254-0.562-1.254-1.256l0,0
		c0-0.691,0.561-1.253,1.254-1.253l0,0C107.904,68.407,108.465,68.969,108.465,69.66L108.465,69.66z"/>
	<path d="M124.59,69.66c0,0.693-0.563,1.256-1.255,1.256l0,0c-0.694,0-1.255-0.563-1.255-1.256l0,0
		c0-0.691,0.561-1.253,1.255-1.253l0,0C124.027,68.407,124.59,68.969,124.59,69.66L124.59,69.66z"/>
	<path d="M116.526,69.66c0,0.693-0.562,1.256-1.255,1.256l0,0c-0.693,0-1.254-0.563-1.254-1.256l0,0
		c0-0.691,0.561-1.253,1.254-1.253l0,0C115.965,68.407,116.526,68.969,116.526,69.66L116.526,69.66z"/>
	<path d="M132.651,69.66c0,0.694-0.562,1.256-1.255,1.256l0,0c-0.693,0-1.256-0.562-1.256-1.256l0,0
		c0-0.691,0.563-1.253,1.256-1.253l0,0C132.09,68.407,132.651,68.969,132.651,69.66L132.651,69.66z"/>
	<path d="M148.778,69.66c0,0.693-0.563,1.256-1.255,1.256l0,0c-0.694,0-1.256-0.563-1.256-1.256l0,0
		c0-0.691,0.562-1.253,1.256-1.253l0,0C148.215,68.407,148.778,68.969,148.778,69.66L148.778,69.66z"/>
	<path d="M140.715,69.66c0,0.693-0.563,1.256-1.254,1.256l0,0c-0.694,0-1.256-0.563-1.256-1.256l0,0
		c0-0.691,0.562-1.253,1.256-1.253l0,0C140.152,68.407,140.715,68.969,140.715,69.66L140.715,69.66z"/>
	<path d="M156.84,69.66c0,0.694-0.562,1.256-1.256,1.256l0,0c-0.693,0-1.254-0.562-1.254-1.256l0,0
		c0-0.691,0.561-1.253,1.254-1.253l0,0C156.278,68.407,156.84,68.969,156.84,69.66L156.84,69.66z"/>
	<path d="M172.965,69.66c0,0.693-0.563,1.256-1.255,1.256l0,0c-0.694,0-1.257-0.563-1.257-1.256l0,0
		c0-0.691,0.563-1.253,1.257-1.253l0,0C172.402,68.407,172.965,68.969,172.965,69.66L172.965,69.66z"/>
	<path d="M164.901,69.66c0,0.693-0.562,1.256-1.253,1.256l0,0c-0.695,0-1.257-0.563-1.257-1.256l0,0
		c0-0.691,0.562-1.253,1.257-1.253l0,0C164.34,68.407,164.901,68.969,164.901,69.66L164.901,69.66z"/>
	<path d="M108.465,77.525c0,0.694-0.561,1.255-1.256,1.255l0,0c-0.693,0-1.254-0.561-1.254-1.255l0,0
		c0-0.692,0.561-1.254,1.254-1.254l0,0C107.904,76.271,108.465,76.833,108.465,77.525L108.465,77.525z"/>
	<path d="M124.59,77.525c0,0.693-0.563,1.255-1.255,1.255l0,0c-0.694,0-1.255-0.562-1.255-1.255l0,0
		c0-0.692,0.561-1.254,1.255-1.254l0,0C124.027,76.271,124.59,76.833,124.59,77.525L124.59,77.525z"/>
	<path d="M116.526,77.525c0,0.693-0.562,1.255-1.255,1.255l0,0c-0.693,0-1.254-0.562-1.254-1.255l0,0
		c0-0.692,0.561-1.254,1.254-1.254l0,0C115.965,76.271,116.526,76.833,116.526,77.525L116.526,77.525z"/>
	<path d="M132.651,77.525c0,0.694-0.562,1.255-1.255,1.255l0,0c-0.693,0-1.256-0.561-1.256-1.255l0,0
		c0-0.692,0.563-1.254,1.256-1.254l0,0C132.09,76.271,132.651,76.833,132.651,77.525L132.651,77.525z"/>
	<path d="M148.778,77.525c0,0.693-0.563,1.255-1.255,1.255l0,0c-0.694,0-1.256-0.562-1.256-1.255l0,0
		c0-0.692,0.562-1.254,1.256-1.254l0,0C148.215,76.271,148.778,76.833,148.778,77.525L148.778,77.525z"/>
	<path d="M140.715,77.525c0,0.693-0.563,1.255-1.254,1.255l0,0c-0.694,0-1.256-0.562-1.256-1.255l0,0
		c0-0.692,0.562-1.254,1.256-1.254l0,0C140.152,76.271,140.715,76.833,140.715,77.525L140.715,77.525z"/>
	<path d="M156.84,77.525c0,0.694-0.562,1.255-1.256,1.255l0,0c-0.693,0-1.254-0.561-1.254-1.255l0,0
		c0-0.692,0.561-1.254,1.254-1.254l0,0C156.278,76.271,156.84,76.833,156.84,77.525L156.84,77.525z"/>
	<path d="M172.965,77.525c0,0.693-0.563,1.255-1.255,1.255l0,0c-0.694,0-1.257-0.562-1.257-1.255l0,0
		c0-0.692,0.563-1.254,1.257-1.254l0,0C172.402,76.271,172.965,76.833,172.965,77.525L172.965,77.525z"/>
	<path d="M164.901,77.525c0,0.693-0.562,1.255-1.253,1.255l0,0c-0.695,0-1.257-0.562-1.257-1.255l0,0
		c0-0.692,0.562-1.254,1.257-1.254l0,0C164.34,76.271,164.901,76.833,164.901,77.525L164.901,77.525z"/>
	<path d="M108.465,85.389c0,0.696-0.561,1.258-1.256,1.258l0,0c-0.693,0-1.254-0.562-1.254-1.258l0,0
		c0-0.692,0.561-1.254,1.254-1.254l0,0C107.904,84.135,108.465,84.696,108.465,85.389L108.465,85.389z"/>
	<path d="M124.59,85.389c0,0.694-0.563,1.258-1.255,1.258l0,0c-0.694,0-1.255-0.563-1.255-1.258l0,0
		c0-0.692,0.561-1.254,1.255-1.254l0,0C124.027,84.135,124.59,84.696,124.59,85.389L124.59,85.389z"/>
	<path d="M116.526,85.389c0,0.694-0.562,1.258-1.255,1.258l0,0c-0.693,0-1.254-0.563-1.254-1.258l0,0
		c0-0.692,0.561-1.254,1.254-1.254l0,0C115.965,84.135,116.526,84.696,116.526,85.389L116.526,85.389z"/>
	<path d="M132.651,85.389c0,0.696-0.562,1.258-1.255,1.258l0,0c-0.693,0-1.256-0.562-1.256-1.258l0,0
		c0-0.692,0.563-1.254,1.256-1.254l0,0C132.09,84.135,132.651,84.696,132.651,85.389L132.651,85.389z"/>
	<path d="M148.778,85.389c0,0.694-0.563,1.258-1.255,1.258l0,0c-0.694,0-1.256-0.563-1.256-1.258l0,0
		c0-0.692,0.562-1.254,1.256-1.254l0,0C148.215,84.135,148.778,84.696,148.778,85.389L148.778,85.389z"/>
	<path d="M140.715,85.389c0,0.694-0.563,1.258-1.254,1.258l0,0c-0.694,0-1.256-0.563-1.256-1.258l0,0
		c0-0.692,0.562-1.254,1.256-1.254l0,0C140.152,84.135,140.715,84.696,140.715,85.389L140.715,85.389z"/>
	<path d="M156.84,85.389c0,0.696-0.562,1.258-1.256,1.258l0,0c-0.693,0-1.254-0.562-1.254-1.258l0,0
		c0-0.692,0.561-1.254,1.254-1.254l0,0C156.278,84.135,156.84,84.696,156.84,85.389L156.84,85.389z"/>
	<path d="M172.965,85.389c0,0.694-0.563,1.258-1.255,1.258l0,0c-0.694,0-1.257-0.563-1.257-1.258l0,0
		c0-0.692,0.563-1.254,1.257-1.254l0,0C172.402,84.135,172.965,84.696,172.965,85.389L172.965,85.389z"/>
	<path d="M164.901,85.389c0,0.694-0.562,1.258-1.253,1.258l0,0c-0.695,0-1.257-0.563-1.257-1.258l0,0
		c0-0.692,0.562-1.254,1.257-1.254l0,0C164.34,84.135,164.901,84.696,164.901,85.389L164.901,85.389z"/>
	<path d="M181.018,61.514c0,0.693-0.561,1.257-1.256,1.257l0,0c-0.693,0-1.254-0.563-1.254-1.257l0,0
		c0-0.693,0.561-1.256,1.254-1.256l0,0C180.457,60.258,181.018,60.82,181.018,61.514L181.018,61.514z"/>
	<path d="M197.076,61.514c0,0.692-0.562,1.257-1.254,1.257l0,0c-0.694,0-1.256-0.564-1.256-1.257l0,0
		c0-0.693,0.562-1.256,1.256-1.256l0,0C196.515,60.258,197.076,60.82,197.076,61.514L197.076,61.514z"/>
	<path d="M189.047,61.514c0,0.692-0.562,1.257-1.254,1.257l0,0c-0.696,0-1.256-0.564-1.256-1.257l0,0
		c0-0.693,0.56-1.256,1.256-1.256l0,0C188.485,60.258,189.047,60.82,189.047,61.514L189.047,61.514z"/>
	<path d="M205.105,61.514c0,0.693-0.562,1.257-1.255,1.257l0,0c-0.692,0-1.255-0.563-1.255-1.257l0,0
		c0-0.693,0.563-1.256,1.255-1.256l0,0C204.544,60.258,205.105,60.82,205.105,61.514L205.105,61.514z"/>
	<path d="M221.165,61.514c0,0.692-0.563,1.257-1.254,1.257l0,0c-0.697,0-1.258-0.564-1.258-1.257l0,0
		c0-0.693,0.561-1.256,1.258-1.256l0,0C220.602,60.258,221.165,60.82,221.165,61.514L221.165,61.514z"/>
	<path d="M213.133,61.514c0,0.692-0.561,1.257-1.252,1.257l0,0c-0.694,0-1.256-0.564-1.256-1.257l0,0
		c0-0.693,0.562-1.256,1.256-1.256l0,0C212.572,60.258,213.133,60.82,213.133,61.514L213.133,61.514z"/>
	<path d="M229.194,61.514c0,0.693-0.563,1.257-1.256,1.257l0,0c-0.692,0-1.256-0.563-1.256-1.257l0,0
		c0-0.693,0.563-1.256,1.256-1.256l0,0C228.632,60.258,229.194,60.82,229.194,61.514L229.194,61.514z"/>
	<path d="M245.253,61.514c0,0.692-0.563,1.257-1.254,1.257l0,0c-0.696,0-1.257-0.564-1.257-1.257l0,0
		c0-0.693,0.561-1.256,1.257-1.256l0,0C244.689,60.258,245.253,60.82,245.253,61.514L245.253,61.514z"/>
	<path d="M237.224,61.514c0,0.692-0.563,1.257-1.255,1.257l0,0c-0.693,0-1.255-0.564-1.255-1.257l0,0
		c0-0.693,0.562-1.256,1.255-1.256l0,0C236.661,60.258,237.224,60.82,237.224,61.514L237.224,61.514z"/>
	<path d="M180.753,69.66c0,0.694-0.562,1.256-1.255,1.256l0,0c-0.693,0-1.255-0.562-1.255-1.256l0,0
		c0-0.691,0.562-1.253,1.255-1.253l0,0C180.191,68.407,180.753,68.969,180.753,69.66L180.753,69.66z"/>
	<path d="M196.877,69.66c0,0.693-0.561,1.256-1.255,1.256l0,0c-0.693,0-1.255-0.563-1.255-1.256l0,0
		c0-0.691,0.562-1.253,1.255-1.253l0,0C196.316,68.407,196.877,68.969,196.877,69.66L196.877,69.66z"/>
	<path d="M188.816,69.66c0,0.693-0.563,1.256-1.255,1.256l0,0c-0.695,0-1.257-0.563-1.257-1.256l0,0
		c0-0.691,0.562-1.253,1.257-1.253l0,0C188.254,68.407,188.816,68.969,188.816,69.66L188.816,69.66z"/>
	<path d="M204.938,69.66c0,0.694-0.562,1.256-1.255,1.256l0,0c-0.691,0-1.254-0.562-1.254-1.256l0,0
		c0-0.691,0.563-1.253,1.254-1.253l0,0C204.377,68.407,204.938,68.969,204.938,69.66L204.938,69.66z"/>
	<path d="M221.066,69.66c0,0.693-0.563,1.256-1.255,1.256l0,0c-0.693,0-1.255-0.563-1.255-1.256l0,0
		c0-0.691,0.562-1.253,1.255-1.253l0,0C220.503,68.407,221.066,68.969,221.066,69.66L221.066,69.66z"/>
	<path d="M213.002,69.66c0,0.693-0.561,1.256-1.253,1.256l0,0c-0.694,0-1.256-0.563-1.256-1.256l0,0
		c0-0.691,0.562-1.253,1.256-1.253l0,0C212.441,68.407,213.002,68.969,213.002,69.66L213.002,69.66z"/>
	<path d="M229.128,69.66c0,0.694-0.562,1.256-1.255,1.256l0,0c-0.693,0-1.254-0.562-1.254-1.256l0,0
		c0-0.691,0.561-1.253,1.254-1.253l0,0C228.566,68.407,229.128,68.969,229.128,69.66L229.128,69.66z"/>
	<path d="M245.253,69.284c0,0.692-0.563,1.255-1.254,1.255l0,0c-0.696,0-1.257-0.563-1.257-1.255l0,0
		c0-0.693,0.561-1.254,1.257-1.254l0,0C244.689,68.03,245.253,68.591,245.253,69.284L245.253,69.284z"/>
	<path d="M237.188,69.66c0,0.693-0.559,1.256-1.251,1.256l0,0c-0.696,0-1.256-0.563-1.256-1.256l0,0
		c0-0.691,0.56-1.253,1.256-1.253l0,0C236.629,68.407,237.188,68.969,237.188,69.66L237.188,69.66z"/>
	<path d="M180.753,77.525c0,0.694-0.562,1.255-1.255,1.255l0,0c-0.693,0-1.255-0.561-1.255-1.255l0,0
		c0-0.692,0.562-1.254,1.255-1.254l0,0C180.191,76.271,180.753,76.833,180.753,77.525L180.753,77.525z"/>
	<path d="M196.877,77.525c0,0.693-0.561,1.255-1.255,1.255l0,0c-0.693,0-1.255-0.562-1.255-1.255l0,0
		c0-0.692,0.562-1.254,1.255-1.254l0,0C196.316,76.271,196.877,76.833,196.877,77.525L196.877,77.525z"/>
	<path d="M188.816,77.525c0,0.693-0.563,1.255-1.255,1.255l0,0c-0.695,0-1.257-0.562-1.257-1.255l0,0
		c0-0.692,0.562-1.254,1.257-1.254l0,0C188.254,76.271,188.816,76.833,188.816,77.525L188.816,77.525z"/>
	<path d="M204.938,77.525c0,0.694-0.562,1.255-1.255,1.255l0,0c-0.691,0-1.254-0.561-1.254-1.255l0,0
		c0-0.692,0.563-1.254,1.254-1.254l0,0C204.377,76.271,204.938,76.833,204.938,77.525L204.938,77.525z"/>
	<path d="M221.066,77.525c0,0.693-0.563,1.255-1.255,1.255l0,0c-0.693,0-1.255-0.562-1.255-1.255l0,0
		c0-0.692,0.562-1.254,1.255-1.254l0,0C220.503,76.271,221.066,76.833,221.066,77.525L221.066,77.525z"/>
	<path d="M213.002,77.525c0,0.693-0.561,1.255-1.253,1.255l0,0c-0.694,0-1.256-0.562-1.256-1.255l0,0
		c0-0.692,0.562-1.254,1.256-1.254l0,0C212.441,76.271,213.002,76.833,213.002,77.525L213.002,77.525z"/>
	<path d="M229.128,77.525c0,0.694-0.562,1.255-1.255,1.255l0,0c-0.693,0-1.254-0.561-1.254-1.255l0,0
		c0-0.692,0.561-1.254,1.254-1.254l0,0C228.566,76.271,229.128,76.833,229.128,77.525L229.128,77.525z"/>
	<path d="M245.253,77.056c0,0.692-0.563,1.254-1.254,1.254l0,0c-0.696,0-1.257-0.562-1.257-1.254l0,0
		c0-0.693,0.561-1.255,1.257-1.255l0,0C244.689,75.801,245.253,76.362,245.253,77.056L245.253,77.056z"/>
	<path d="M237.188,77.525c0,0.693-0.559,1.255-1.251,1.255l0,0c-0.696,0-1.256-0.562-1.256-1.255l0,0
		c0-0.692,0.56-1.254,1.256-1.254l0,0C236.629,76.271,237.188,76.833,237.188,77.525L237.188,77.525z"/>
	<path d="M180.753,85.389c0,0.696-0.562,1.258-1.255,1.258l0,0c-0.693,0-1.255-0.562-1.255-1.258l0,0
		c0-0.692,0.562-1.254,1.255-1.254l0,0C180.191,84.135,180.753,84.696,180.753,85.389L180.753,85.389z"/>
	<path d="M196.877,85.389c0,0.694-0.561,1.258-1.255,1.258l0,0c-0.693,0-1.255-0.563-1.255-1.258l0,0
		c0-0.692,0.562-1.254,1.255-1.254l0,0C196.316,84.135,196.877,84.696,196.877,85.389L196.877,85.389z"/>
	<path d="M188.816,85.389c0,0.694-0.563,1.258-1.255,1.258l0,0c-0.695,0-1.257-0.563-1.257-1.258l0,0
		c0-0.692,0.562-1.254,1.257-1.254l0,0C188.254,84.135,188.816,84.696,188.816,85.389L188.816,85.389z"/>
	<path d="M204.938,85.389c0,0.696-0.562,1.258-1.255,1.258l0,0c-0.691,0-1.254-0.562-1.254-1.258l0,0
		c0-0.692,0.563-1.254,1.254-1.254l0,0C204.377,84.135,204.938,84.696,204.938,85.389L204.938,85.389z"/>
	<path d="M221.066,85.389c0,0.694-0.563,1.258-1.255,1.258l0,0c-0.693,0-1.255-0.563-1.255-1.258l0,0
		c0-0.692,0.562-1.254,1.255-1.254l0,0C220.503,84.135,221.066,84.696,221.066,85.389L221.066,85.389z"/>
	<path d="M213.002,85.389c0,0.694-0.561,1.258-1.253,1.258l0,0c-0.694,0-1.256-0.563-1.256-1.258l0,0
		c0-0.692,0.562-1.254,1.256-1.254l0,0C212.441,84.135,213.002,84.696,213.002,85.389L213.002,85.389z"/>
	<path d="M229.128,85.389c0,0.696-0.562,1.258-1.255,1.258l0,0c-0.693,0-1.254-0.562-1.254-1.258l0,0
		c0-0.692,0.561-1.254,1.254-1.254l0,0C228.566,84.135,229.128,84.696,229.128,85.389L229.128,85.389z"/>
	<path d="M245.253,84.827c0,0.691-0.563,1.254-1.254,1.254l0,0c-0.696,0-1.257-0.563-1.257-1.254l0,0
		c0-0.693,0.561-1.255,1.257-1.255l0,0C244.689,83.572,245.253,84.134,245.253,84.827L245.253,84.827z"/>
	<path d="M237.188,85.389c0,0.694-0.559,1.258-1.251,1.258l0,0c-0.696,0-1.256-0.563-1.256-1.258l0,0
		c0-0.692,0.56-1.254,1.256-1.254l0,0C236.629,84.135,237.188,84.696,237.188,85.389L237.188,85.389z"/>
	<path d="M36.785,92.503c0,0.693-0.562,1.255-1.256,1.255l0,0c-0.693,0-1.254-0.562-1.254-1.255l0,0
		c0-0.694,0.561-1.254,1.254-1.254l0,0C36.224,91.249,36.785,91.809,36.785,92.503L36.785,92.503z"/>
	<path d="M52.91,92.503c0,0.692-0.563,1.255-1.255,1.255l0,0c-0.693,0-1.255-0.563-1.255-1.255l0,0
		c0-0.694,0.562-1.254,1.255-1.254l0,0C52.348,91.249,52.91,91.809,52.91,92.503L52.91,92.503z"/>
	<path d="M44.848,92.503c0,0.692-0.562,1.255-1.254,1.255l0,0c-0.695,0-1.256-0.563-1.256-1.255l0,0
		c0-0.694,0.561-1.254,1.256-1.254l0,0C44.286,91.249,44.848,91.809,44.848,92.503L44.848,92.503z"/>
	<path d="M60.972,92.503c0,0.693-0.562,1.255-1.255,1.255l0,0c-0.693,0-1.255-0.562-1.255-1.255l0,0
		c0-0.694,0.562-1.254,1.255-1.254l0,0C60.41,91.249,60.972,91.809,60.972,92.503L60.972,92.503z"/>
	<path d="M77.098,92.503c0,0.692-0.562,1.255-1.254,1.255l0,0c-0.694,0-1.256-0.563-1.256-1.255l0,0
		c0-0.694,0.562-1.254,1.256-1.254l0,0C76.536,91.249,77.098,91.809,77.098,92.503L77.098,92.503z"/>
	<path d="M69.035,92.503c0,0.692-0.563,1.255-1.254,1.255l0,0c-0.693,0-1.256-0.563-1.256-1.255l0,0
		c0-0.694,0.563-1.254,1.256-1.254l0,0C68.473,91.249,69.035,91.809,69.035,92.503L69.035,92.503z"/>
	<path d="M85.16,92.503c0,0.693-0.562,1.255-1.256,1.255l0,0c-0.692,0-1.254-0.562-1.254-1.255l0,0
		c0-0.694,0.562-1.254,1.254-1.254l0,0C84.599,91.249,85.16,91.809,85.16,92.503L85.16,92.503z"/>
	<path d="M101.285,92.503c0,0.692-0.562,1.255-1.254,1.255l0,0c-0.695,0-1.256-0.563-1.256-1.255l0,0
		c0-0.694,0.561-1.254,1.256-1.254l0,0C100.724,91.249,101.285,91.809,101.285,92.503L101.285,92.503z"/>
	<path d="M93.223,92.503c0,0.692-0.562,1.255-1.254,1.255l0,0c-0.694,0-1.257-0.563-1.257-1.255l0,0
		c0-0.694,0.563-1.254,1.257-1.254l0,0C92.661,91.249,93.223,91.809,93.223,92.503L93.223,92.503z"/>
	<path d="M36.785,100.367c0,0.693-0.562,1.255-1.256,1.255l0,0c-0.693,0-1.254-0.562-1.254-1.255l0,0
		c0-0.692,0.561-1.254,1.254-1.254l0,0C36.224,99.113,36.785,99.675,36.785,100.367L36.785,100.367z"/>
	<path d="M52.91,100.367c0,0.692-0.563,1.255-1.255,1.255l0,0c-0.693,0-1.255-0.563-1.255-1.255l0,0
		c0-0.692,0.562-1.254,1.255-1.254l0,0C52.348,99.113,52.91,99.675,52.91,100.367L52.91,100.367z"/>
	<path d="M44.848,100.367c0,0.692-0.562,1.255-1.254,1.255l0,0c-0.695,0-1.256-0.563-1.256-1.255l0,0
		c0-0.692,0.561-1.254,1.256-1.254l0,0C44.286,99.113,44.848,99.675,44.848,100.367L44.848,100.367z"/>
	<path d="M60.972,100.367c0,0.693-0.562,1.255-1.255,1.255l0,0c-0.693,0-1.255-0.562-1.255-1.255l0,0
		c0-0.692,0.562-1.254,1.255-1.254l0,0C60.41,99.113,60.972,99.675,60.972,100.367L60.972,100.367z"/>
	<path d="M77.098,100.367c0,0.692-0.562,1.255-1.254,1.255l0,0c-0.694,0-1.256-0.563-1.256-1.255l0,0
		c0-0.692,0.562-1.254,1.256-1.254l0,0C76.536,99.113,77.098,99.675,77.098,100.367L77.098,100.367z"/>
	<path d="M69.035,100.367c0,0.692-0.563,1.255-1.254,1.255l0,0c-0.693,0-1.256-0.563-1.256-1.255l0,0
		c0-0.692,0.563-1.254,1.256-1.254l0,0C68.473,99.113,69.035,99.675,69.035,100.367L69.035,100.367z"/>
	<path d="M85.16,100.367c0,0.693-0.562,1.255-1.256,1.255l0,0c-0.692,0-1.254-0.562-1.254-1.255l0,0
		c0-0.692,0.562-1.254,1.254-1.254l0,0C84.599,99.113,85.16,99.675,85.16,100.367L85.16,100.367z"/>
	<path d="M101.285,100.367c0,0.692-0.562,1.255-1.254,1.255l0,0c-0.695,0-1.256-0.563-1.256-1.255l0,0
		c0-0.692,0.561-1.254,1.256-1.254l0,0C100.724,99.113,101.285,99.675,101.285,100.367L101.285,100.367z"/>
	<path d="M93.223,100.367c0,0.692-0.562,1.255-1.254,1.255l0,0c-0.694,0-1.257-0.563-1.257-1.255l0,0
		c0-0.692,0.563-1.254,1.257-1.254l0,0C92.661,99.113,93.223,99.675,93.223,100.367L93.223,100.367z"/>
	<path d="M108.76,92.503c0,0.693-0.561,1.255-1.256,1.255l0,0c-0.693,0-1.254-0.562-1.254-1.255l0,0
		c0-0.694,0.561-1.254,1.254-1.254l0,0C108.199,91.249,108.76,91.809,108.76,92.503L108.76,92.503z"/>
	<path d="M124.885,92.503c0,0.692-0.562,1.255-1.255,1.255l0,0c-0.693,0-1.255-0.563-1.255-1.255l0,0
		c0-0.694,0.562-1.254,1.255-1.254l0,0C124.323,91.249,124.885,91.809,124.885,92.503L124.885,92.503z"/>
	<path d="M116.822,92.503c0,0.692-0.563,1.255-1.255,1.255l0,0c-0.694,0-1.255-0.563-1.255-1.255l0,0
		c0-0.694,0.561-1.254,1.255-1.254l0,0C116.26,91.249,116.822,91.809,116.822,92.503L116.822,92.503z"/>
	<path d="M132.946,92.503c0,0.693-0.562,1.255-1.255,1.255l0,0c-0.693,0-1.256-0.562-1.256-1.255l0,0
		c0-0.694,0.563-1.254,1.256-1.254l0,0C132.385,91.249,132.946,91.809,132.946,92.503L132.946,92.503z"/>
	<path d="M149.072,92.503c0,0.692-0.563,1.255-1.254,1.255l0,0c-0.695,0-1.255-0.563-1.255-1.255l0,0
		c0-0.694,0.56-1.254,1.255-1.254l0,0C148.51,91.249,149.072,91.809,149.072,92.503L149.072,92.503z"/>
	<path d="M141.008,92.503c0,0.692-0.559,1.255-1.253,1.255l0,0c-0.693,0-1.253-0.563-1.253-1.255l0,0
		c0-0.694,0.56-1.254,1.253-1.254l0,0C140.449,91.249,141.008,91.809,141.008,92.503L141.008,92.503z"/>
	<path d="M157.135,92.503c0,0.693-0.562,1.255-1.256,1.255l0,0c-0.693,0-1.253-0.562-1.253-1.255l0,0
		c0-0.694,0.56-1.254,1.253-1.254l0,0C156.573,91.249,157.135,91.809,157.135,92.503L157.135,92.503z"/>
	<path d="M173.26,92.503c0,0.692-0.563,1.255-1.255,1.255l0,0c-0.693,0-1.256-0.563-1.256-1.255l0,0
		c0-0.694,0.563-1.254,1.256-1.254l0,0C172.697,91.249,173.26,91.809,173.26,92.503L173.26,92.503z"/>
	<path d="M165.196,92.503c0,0.692-0.562,1.255-1.253,1.255l0,0c-0.695,0-1.257-0.563-1.257-1.255l0,0
		c0-0.694,0.562-1.254,1.257-1.254l0,0C164.635,91.249,165.196,91.809,165.196,92.503L165.196,92.503z"/>
	<path d="M108.76,100.367c0,0.693-0.561,1.255-1.256,1.255l0,0c-0.693,0-1.254-0.562-1.254-1.255l0,0
		c0-0.692,0.561-1.254,1.254-1.254l0,0C108.199,99.113,108.76,99.675,108.76,100.367L108.76,100.367z"/>
	<path d="M124.885,100.367c0,0.692-0.562,1.255-1.255,1.255l0,0c-0.693,0-1.255-0.563-1.255-1.255l0,0
		c0-0.692,0.562-1.254,1.255-1.254l0,0C124.323,99.113,124.885,99.675,124.885,100.367L124.885,100.367z"/>
	<path d="M116.822,100.367c0,0.692-0.563,1.255-1.255,1.255l0,0c-0.694,0-1.255-0.563-1.255-1.255l0,0
		c0-0.692,0.561-1.254,1.255-1.254l0,0C116.26,99.113,116.822,99.675,116.822,100.367L116.822,100.367z"/>
	<path d="M132.946,100.367c0,0.693-0.562,1.255-1.255,1.255l0,0c-0.693,0-1.256-0.562-1.256-1.255l0,0
		c0-0.692,0.563-1.254,1.256-1.254l0,0C132.385,99.113,132.946,99.675,132.946,100.367L132.946,100.367z"/>
	<path d="M149.072,100.367c0,0.692-0.563,1.255-1.254,1.255l0,0c-0.695,0-1.255-0.563-1.255-1.255l0,0
		c0-0.692,0.56-1.254,1.255-1.254l0,0C148.51,99.113,149.072,99.675,149.072,100.367L149.072,100.367z"/>
	<path d="M141.008,100.367c0,0.692-0.559,1.255-1.253,1.255l0,0c-0.693,0-1.253-0.563-1.253-1.255l0,0
		c0-0.692,0.56-1.254,1.253-1.254l0,0C140.449,99.113,141.008,99.675,141.008,100.367L141.008,100.367z"/>
	<path d="M157.135,100.367c0,0.693-0.562,1.255-1.256,1.255l0,0c-0.693,0-1.253-0.562-1.253-1.255l0,0
		c0-0.692,0.56-1.254,1.253-1.254l0,0C156.573,99.113,157.135,99.675,157.135,100.367L157.135,100.367z"/>
	<path d="M173.26,100.367c0,0.692-0.563,1.255-1.255,1.255l0,0c-0.693,0-1.256-0.563-1.256-1.255l0,0
		c0-0.692,0.563-1.254,1.256-1.254l0,0C172.697,99.113,173.26,99.675,173.26,100.367L173.26,100.367z"/>
	<path d="M165.196,100.367c0,0.692-0.562,1.255-1.253,1.255l0,0c-0.695,0-1.257-0.563-1.257-1.255l0,0
		c0-0.692,0.562-1.254,1.257-1.254l0,0C164.635,99.113,165.196,99.675,165.196,100.367L165.196,100.367z"/>
	<path d="M181.048,92.503c0,0.693-0.562,1.255-1.255,1.255l0,0c-0.693,0-1.255-0.562-1.255-1.255l0,0
		c0-0.694,0.562-1.254,1.255-1.254l0,0C180.486,91.249,181.048,91.809,181.048,92.503L181.048,92.503z"/>
	<path d="M197.174,92.503c0,0.692-0.563,1.255-1.255,1.255l0,0c-0.694,0-1.257-0.563-1.257-1.255l0,0
		c0-0.694,0.563-1.254,1.257-1.254l0,0C196.611,91.249,197.174,91.809,197.174,92.503L197.174,92.503z"/>
	<path d="M189.111,92.503c0,0.692-0.562,1.255-1.254,1.255l0,0c-0.695,0-1.257-0.563-1.257-1.255l0,0
		c0-0.694,0.562-1.254,1.257-1.254l0,0C188.55,91.249,189.111,91.809,189.111,92.503L189.111,92.503z"/>
	<path d="M205.232,92.503c0,0.693-0.558,1.255-1.254,1.255l0,0c-0.692,0-1.254-0.562-1.254-1.255l0,0
		c0-0.694,0.562-1.254,1.254-1.254l0,0C204.675,91.249,205.232,91.809,205.232,92.503L205.232,92.503z"/>
	<path d="M221.36,92.503c0,0.692-0.563,1.255-1.255,1.255l0,0c-0.693,0-1.254-0.563-1.254-1.255l0,0
		c0-0.694,0.561-1.254,1.254-1.254l0,0C220.798,91.249,221.36,91.809,221.36,92.503L221.36,92.503z"/>
	<path d="M213.295,92.503c0,0.692-0.56,1.255-1.251,1.255l0,0c-0.695,0-1.254-0.563-1.254-1.255l0,0
		c0-0.694,0.559-1.254,1.254-1.254l0,0C212.735,91.249,213.295,91.809,213.295,92.503L213.295,92.503z"/>
	<path d="M229.423,92.503c0,0.693-0.562,1.255-1.255,1.255l0,0c-0.693,0-1.254-0.562-1.254-1.255l0,0
		c0-0.694,0.561-1.254,1.254-1.254l0,0C228.861,91.249,229.423,91.809,229.423,92.503L229.423,92.503z"/>
	<path d="M245.549,92.597c0,0.692-0.563,1.254-1.256,1.254l0,0c-0.694,0-1.255-0.562-1.255-1.254l0,0
		c0-0.693,0.561-1.255,1.255-1.255l0,0C244.986,91.342,245.549,91.903,245.549,92.597L245.549,92.597z"/>
	<path d="M237.485,92.503c0,0.692-0.562,1.255-1.254,1.255l0,0c-0.695,0-1.257-0.563-1.257-1.255l0,0
		c0-0.694,0.562-1.254,1.257-1.254l0,0C236.924,91.249,237.485,91.809,237.485,92.503L237.485,92.503z"/>
	<path d="M181.048,100.367c0,0.693-0.562,1.255-1.255,1.255l0,0c-0.693,0-1.255-0.562-1.255-1.255l0,0
		c0-0.692,0.562-1.254,1.255-1.254l0,0C180.486,99.113,181.048,99.675,181.048,100.367L181.048,100.367z"/>
	<path d="M197.174,100.367c0,0.692-0.563,1.255-1.255,1.255l0,0c-0.694,0-1.257-0.563-1.257-1.255l0,0
		c0-0.692,0.563-1.254,1.257-1.254l0,0C196.611,99.113,197.174,99.675,197.174,100.367L197.174,100.367z"/>
	<path d="M189.111,100.367c0,0.692-0.562,1.255-1.254,1.255l0,0c-0.695,0-1.257-0.563-1.257-1.255l0,0
		c0-0.692,0.562-1.254,1.257-1.254l0,0C188.55,99.113,189.111,99.675,189.111,100.367L189.111,100.367z"/>
	<path d="M205.232,100.367c0,0.693-0.558,1.255-1.254,1.255l0,0c-0.692,0-1.254-0.562-1.254-1.255l0,0
		c0-0.692,0.562-1.254,1.254-1.254l0,0C204.675,99.113,205.232,99.675,205.232,100.367L205.232,100.367z"/>
	<path d="M221.36,100.367c0,0.692-0.563,1.255-1.255,1.255l0,0c-0.693,0-1.254-0.563-1.254-1.255l0,0
		c0-0.692,0.561-1.254,1.254-1.254l0,0C220.798,99.113,221.36,99.675,221.36,100.367L221.36,100.367z"/>
	<path d="M213.295,100.367c0,0.692-0.56,1.255-1.251,1.255l0,0c-0.695,0-1.254-0.563-1.254-1.255l0,0
		c0-0.692,0.559-1.254,1.254-1.254l0,0C212.735,99.113,213.295,99.675,213.295,100.367L213.295,100.367z"/>
	<path d="M229.423,100.367c0,0.693-0.562,1.255-1.255,1.255l0,0c-0.693,0-1.254-0.562-1.254-1.255l0,0
		c0-0.692,0.561-1.254,1.254-1.254l0,0C228.861,99.113,229.423,99.675,229.423,100.367L229.423,100.367z"/>
	<path d="M245.549,100.367c0,0.692-0.563,1.255-1.256,1.255l0,0c-0.694,0-1.255-0.563-1.255-1.255l0,0
		c0-0.692,0.561-1.254,1.255-1.254l0,0C244.986,99.113,245.549,99.675,245.549,100.367L245.549,100.367z"/>
	<path d="M237.485,100.367c0,0.692-0.562,1.255-1.254,1.255l0,0c-0.695,0-1.257-0.563-1.257-1.255l0,0
		c0-0.692,0.562-1.254,1.257-1.254l0,0C236.924,99.113,237.485,99.675,237.485,100.367L237.485,100.367z"/>
	<path d="M253.601,61.514c0,0.693-0.561,1.257-1.255,1.257l0,0c-0.693,0-1.255-0.563-1.255-1.257l0,0
		c0-0.693,0.562-1.256,1.255-1.256l0,0C253.04,60.258,253.601,60.82,253.601,61.514L253.601,61.514z"/>
	<path d="M269.66,61.514c0,0.692-0.562,1.257-1.255,1.257l0,0c-0.694,0-1.255-0.564-1.255-1.257l0,0
		c0-0.693,0.561-1.256,1.255-1.256l0,0C269.099,60.258,269.66,60.82,269.66,61.514L269.66,61.514z"/>
	<path d="M261.631,61.514c0,0.692-0.561,1.257-1.254,1.257l0,0c-0.695,0-1.258-0.564-1.258-1.257l0,0
		c0-0.693,0.563-1.256,1.258-1.256l0,0C261.07,60.258,261.631,60.82,261.631,61.514L261.631,61.514z"/>
	<path d="M277.689,61.514c0,0.693-0.562,1.257-1.255,1.257l0,0c-0.692,0-1.254-0.563-1.254-1.257l0,0
		c0-0.693,0.562-1.256,1.254-1.256l0,0C277.128,60.258,277.689,60.82,277.689,61.514L277.689,61.514z"/>
	<path d="M293.748,61.514c0,0.692-0.563,1.257-1.255,1.257l0,0c-0.695,0-1.255-0.564-1.255-1.257l0,0
		c0-0.693,0.56-1.256,1.255-1.256l0,0C293.186,60.258,293.748,60.82,293.748,61.514L293.748,61.514z"/>
	<path d="M285.718,61.514c0,0.692-0.563,1.257-1.252,1.257l0,0c-0.695,0-1.255-0.564-1.255-1.257l0,0
		c0-0.693,0.56-1.256,1.255-1.256l0,0C285.155,60.258,285.718,60.82,285.718,61.514L285.718,61.514z"/>
	<path d="M301.778,61.514c0,0.693-0.563,1.257-1.257,1.257l0,0c-0.693,0-1.254-0.563-1.254-1.257l0,0
		c0-0.693,0.561-1.256,1.254-1.256l0,0C301.216,60.258,301.778,60.82,301.778,61.514L301.778,61.514z"/>
	<path d="M253.336,69.66c0,0.694-0.56,1.256-1.256,1.256l0,0c-0.694,0-1.254-0.562-1.254-1.256l0,0
		c0-0.691,0.56-1.253,1.254-1.253l0,0C252.776,68.407,253.336,68.969,253.336,69.66L253.336,69.66z"/>
	<path d="M269.463,69.66c0,0.693-0.563,1.256-1.255,1.256l0,0c-0.695,0-1.255-0.563-1.255-1.256l0,0
		c0-0.691,0.56-1.253,1.255-1.253l0,0C268.9,68.407,269.463,68.969,269.463,69.66L269.463,69.66z"/>
	<path d="M261.399,69.66c0,0.693-0.562,1.256-1.254,1.256l0,0c-0.694,0-1.256-0.563-1.256-1.256l0,0
		c0-0.691,0.562-1.253,1.256-1.253l0,0C260.838,68.407,261.399,68.969,261.399,69.66L261.399,69.66z"/>
	<path d="M277.522,69.66c0,0.694-0.562,1.256-1.255,1.256l0,0c-0.691,0-1.254-0.562-1.254-1.256l0,0
		c0-0.691,0.563-1.253,1.254-1.253l0,0C276.961,68.407,277.522,68.969,277.522,69.66L277.522,69.66z"/>
	<path d="M293.649,69.66c0,0.693-0.563,1.256-1.256,1.256l0,0c-0.692,0-1.254-0.563-1.254-1.256l0,0
		c0-0.691,0.562-1.253,1.254-1.253l0,0C293.087,68.407,293.649,68.969,293.649,69.66L293.649,69.66z"/>
	<path d="M285.586,69.66c0,0.693-0.56,1.256-1.252,1.256l0,0c-0.696,0-1.257-0.563-1.257-1.256l0,0
		c0-0.691,0.561-1.253,1.257-1.253l0,0C285.026,68.407,285.586,68.969,285.586,69.66L285.586,69.66z"/>
	<path d="M301.711,69.66c0,0.694-0.561,1.256-1.255,1.256l0,0c-0.692,0-1.254-0.562-1.254-1.256l0,0
		c0-0.691,0.562-1.253,1.254-1.253l0,0C301.15,68.407,301.711,68.969,301.711,69.66L301.711,69.66z"/>
	<path d="M317.836,69.284c0,0.692-0.562,1.255-1.254,1.255l0,0c-0.693,0-1.255-0.563-1.255-1.255l0,0
		c0-0.693,0.562-1.254,1.255-1.254l0,0C317.274,68.03,317.836,68.591,317.836,69.284L317.836,69.284z"/>
	<path d="M309.774,69.66c0,0.693-0.563,1.256-1.254,1.256l0,0c-0.694,0-1.255-0.563-1.255-1.256l0,0
		c0-0.691,0.561-1.253,1.255-1.253l0,0C309.212,68.407,309.774,68.969,309.774,69.66L309.774,69.66z"/>
	<path d="M253.336,77.525c0,0.694-0.56,1.255-1.256,1.255l0,0c-0.694,0-1.254-0.561-1.254-1.255l0,0
		c0-0.692,0.56-1.254,1.254-1.254l0,0C252.776,76.271,253.336,76.833,253.336,77.525L253.336,77.525z"/>
	<path d="M269.463,77.525c0,0.693-0.563,1.255-1.255,1.255l0,0c-0.695,0-1.255-0.562-1.255-1.255l0,0
		c0-0.692,0.56-1.254,1.255-1.254l0,0C268.9,76.271,269.463,76.833,269.463,77.525L269.463,77.525z"/>
	<path d="M261.399,77.525c0,0.693-0.562,1.255-1.254,1.255l0,0c-0.694,0-1.256-0.562-1.256-1.255l0,0
		c0-0.692,0.562-1.254,1.256-1.254l0,0C260.838,76.271,261.399,76.833,261.399,77.525L261.399,77.525z"/>
	<path d="M277.522,77.525c0,0.694-0.562,1.255-1.255,1.255l0,0c-0.691,0-1.254-0.561-1.254-1.255l0,0
		c0-0.692,0.563-1.254,1.254-1.254l0,0C276.961,76.271,277.522,76.833,277.522,77.525L277.522,77.525z"/>
	<path d="M293.649,77.525c0,0.693-0.563,1.255-1.256,1.255l0,0c-0.692,0-1.254-0.562-1.254-1.255l0,0
		c0-0.692,0.562-1.254,1.254-1.254l0,0C293.087,76.271,293.649,76.833,293.649,77.525L293.649,77.525z"/>
	<path d="M285.586,77.525c0,0.693-0.56,1.255-1.252,1.255l0,0c-0.696,0-1.257-0.562-1.257-1.255l0,0
		c0-0.692,0.561-1.254,1.257-1.254l0,0C285.026,76.271,285.586,76.833,285.586,77.525L285.586,77.525z"/>
	<path d="M301.711,77.525c0,0.694-0.561,1.255-1.255,1.255l0,0c-0.692,0-1.254-0.561-1.254-1.255l0,0
		c0-0.692,0.562-1.254,1.254-1.254l0,0C301.15,76.271,301.711,76.833,301.711,77.525L301.711,77.525z"/>
	<path d="M317.836,77.056c0,0.692-0.562,1.254-1.254,1.254l0,0c-0.693,0-1.255-0.562-1.255-1.254l0,0
		c0-0.693,0.562-1.255,1.255-1.255l0,0C317.274,75.801,317.836,76.362,317.836,77.056L317.836,77.056z"/>
	<path d="M309.774,77.525c0,0.693-0.563,1.255-1.254,1.255l0,0c-0.694,0-1.255-0.562-1.255-1.255l0,0
		c0-0.692,0.561-1.254,1.255-1.254l0,0C309.212,76.271,309.774,76.833,309.774,77.525L309.774,77.525z"/>
	<path d="M253.336,85.389c0,0.696-0.56,1.258-1.256,1.258l0,0c-0.694,0-1.254-0.562-1.254-1.258l0,0
		c0-0.692,0.56-1.254,1.254-1.254l0,0C252.776,84.135,253.336,84.696,253.336,85.389L253.336,85.389z"/>
	<path d="M269.463,85.389c0,0.694-0.563,1.258-1.255,1.258l0,0c-0.695,0-1.255-0.563-1.255-1.258l0,0
		c0-0.692,0.56-1.254,1.255-1.254l0,0C268.9,84.135,269.463,84.696,269.463,85.389L269.463,85.389z"/>
	<path d="M261.399,85.389c0,0.694-0.562,1.258-1.254,1.258l0,0c-0.694,0-1.256-0.563-1.256-1.258l0,0
		c0-0.692,0.562-1.254,1.256-1.254l0,0C260.838,84.135,261.399,84.696,261.399,85.389L261.399,85.389z"/>
	<path d="M277.522,85.389c0,0.696-0.562,1.258-1.255,1.258l0,0c-0.691,0-1.254-0.562-1.254-1.258l0,0
		c0-0.692,0.563-1.254,1.254-1.254l0,0C276.961,84.135,277.522,84.696,277.522,85.389L277.522,85.389z"/>
	<path d="M293.649,85.389c0,0.694-0.563,1.258-1.256,1.258l0,0c-0.692,0-1.254-0.563-1.254-1.258l0,0
		c0-0.692,0.562-1.254,1.254-1.254l0,0C293.087,84.135,293.649,84.696,293.649,85.389L293.649,85.389z"/>
	<path d="M285.586,85.389c0,0.694-0.56,1.258-1.252,1.258l0,0c-0.696,0-1.257-0.563-1.257-1.258l0,0
		c0-0.692,0.561-1.254,1.257-1.254l0,0C285.026,84.135,285.586,84.696,285.586,85.389L285.586,85.389z"/>
	<path d="M301.711,85.389c0,0.696-0.561,1.258-1.255,1.258l0,0c-0.692,0-1.254-0.562-1.254-1.258l0,0
		c0-0.692,0.562-1.254,1.254-1.254l0,0C301.15,84.135,301.711,84.696,301.711,85.389L301.711,85.389z"/>
	<path d="M317.836,84.827c0,0.691-0.562,1.254-1.254,1.254l0,0c-0.693,0-1.255-0.563-1.255-1.254l0,0
		c0-0.693,0.562-1.255,1.255-1.255l0,0C317.274,83.572,317.836,84.134,317.836,84.827L317.836,84.827z"/>
	<path d="M309.774,85.389c0,0.694-0.563,1.258-1.254,1.258l0,0c-0.694,0-1.255-0.563-1.255-1.258l0,0
		c0-0.692,0.561-1.254,1.255-1.254l0,0C309.212,84.135,309.774,84.696,309.774,85.389L309.774,85.389z"/>
	<path d="M253.632,92.503c0,0.693-0.562,1.255-1.255,1.255l0,0c-0.694,0-1.254-0.562-1.254-1.255l0,0
		c0-0.694,0.56-1.254,1.254-1.254l0,0C253.07,91.249,253.632,91.809,253.632,92.503L253.632,92.503z"/>
	<path d="M269.757,92.503c0,0.692-0.563,1.255-1.255,1.255l0,0c-0.694,0-1.255-0.563-1.255-1.255l0,0
		c0-0.694,0.561-1.254,1.255-1.254l0,0C269.194,91.249,269.757,91.809,269.757,92.503L269.757,92.503z"/>
	<path d="M261.693,92.503c0,0.692-0.56,1.255-1.254,1.255l0,0c-0.693,0-1.256-0.563-1.256-1.255l0,0
		c0-0.694,0.563-1.254,1.256-1.254l0,0C261.134,91.249,261.693,91.809,261.693,92.503L261.693,92.503z"/>
	<path d="M277.818,92.503c0,0.693-0.561,1.255-1.254,1.255l0,0c-0.692,0-1.255-0.562-1.255-1.255l0,0
		c0-0.694,0.563-1.254,1.255-1.254l0,0C277.258,91.249,277.818,91.809,277.818,92.503L277.818,92.503z"/>
	<path d="M293.945,92.503c0,0.692-0.563,1.255-1.255,1.255l0,0c-0.696,0-1.254-0.563-1.254-1.255l0,0
		c0-0.694,0.558-1.254,1.254-1.254l0,0C293.383,91.249,293.945,91.809,293.945,92.503L293.945,92.503z"/>
	<path d="M285.879,92.503c0,0.692-0.559,1.255-1.251,1.255l0,0c-0.694,0-1.255-0.563-1.255-1.255l0,0
		c0-0.694,0.561-1.254,1.255-1.254l0,0C285.32,91.249,285.879,91.809,285.879,92.503L285.879,92.503z"/>
	<path d="M302.008,92.503c0,0.693-0.562,1.255-1.258,1.255l0,0c-0.69,0-1.254-0.562-1.254-1.255l0,0
		c0-0.694,0.563-1.254,1.254-1.254l0,0C301.446,91.249,302.008,91.809,302.008,92.503L302.008,92.503z"/>
	<path d="M310.07,92.503c0,0.692-0.563,1.255-1.256,1.255l0,0c-0.694,0-1.256-0.563-1.256-1.255l0,0
		c0-0.694,0.562-1.254,1.256-1.254l0,0C309.508,91.249,310.07,91.809,310.07,92.503L310.07,92.503z"/>
	<path d="M253.632,100.367c0,0.693-0.562,1.255-1.255,1.255l0,0c-0.694,0-1.254-0.562-1.254-1.255l0,0
		c0-0.692,0.56-1.254,1.254-1.254l0,0C253.07,99.113,253.632,99.675,253.632,100.367L253.632,100.367z"/>
	<path d="M269.757,100.367c0,0.692-0.563,1.255-1.255,1.255l0,0c-0.694,0-1.255-0.563-1.255-1.255l0,0
		c0-0.692,0.561-1.254,1.255-1.254l0,0C269.194,99.113,269.757,99.675,269.757,100.367L269.757,100.367z"/>
	<path d="M261.693,100.367c0,0.692-0.56,1.255-1.254,1.255l0,0c-0.693,0-1.256-0.563-1.256-1.255l0,0
		c0-0.692,0.563-1.254,1.256-1.254l0,0C261.134,99.113,261.693,99.675,261.693,100.367L261.693,100.367z"/>
	<path d="M277.818,100.367c0,0.693-0.561,1.255-1.254,1.255l0,0c-0.692,0-1.255-0.562-1.255-1.255l0,0
		c0-0.692,0.563-1.254,1.255-1.254l0,0C277.258,99.113,277.818,99.675,277.818,100.367L277.818,100.367z"/>
	<path d="M293.945,100.367c0,0.692-0.563,1.255-1.255,1.255l0,0c-0.696,0-1.254-0.563-1.254-1.255l0,0
		c0-0.692,0.558-1.254,1.254-1.254l0,0C293.383,99.113,293.945,99.675,293.945,100.367L293.945,100.367z"/>
	<path d="M285.879,100.367c0,0.692-0.559,1.255-1.251,1.255l0,0c-0.694,0-1.255-0.563-1.255-1.255l0,0
		c0-0.692,0.561-1.254,1.255-1.254l0,0C285.32,99.113,285.879,99.675,285.879,100.367L285.879,100.367z"/>
	<path d="M302.008,100.367c0,0.693-0.562,1.255-1.258,1.255l0,0c-0.69,0-1.254-0.562-1.254-1.255l0,0
		c0-0.692,0.563-1.254,1.254-1.254l0,0C301.446,99.113,302.008,99.675,302.008,100.367L302.008,100.367z"/>
	<path d="M318.132,100.367c0,0.692-0.563,1.255-1.255,1.255l0,0c-0.693,0-1.255-0.563-1.255-1.255l0,0
		c0-0.692,0.562-1.254,1.255-1.254l0,0C317.568,99.113,318.132,99.675,318.132,100.367L318.132,100.367z"/>
	<path d="M310.07,100.367c0,0.692-0.563,1.255-1.256,1.255l0,0c-0.694,0-1.256-0.563-1.256-1.255l0,0
		c0-0.692,0.562-1.254,1.256-1.254l0,0C309.508,99.113,310.07,99.675,310.07,100.367L310.07,100.367z"/>
	<path fill="#F08C56" d="M179.793,62.767"/>
	<path fill="#FFFFFF" d="M88.764,63.985"/>
</g>
<path fill="#B54E40" d="M33.615,90.362c0,0,10.819,9.955,22.381,10.348c11.562,0.396,38.102-6.307,48.481-9.326
	c10.38-3.021,34.16-9.986,52.028-9.59c17.869,0.393,32.059,13.707,71.604,14.475c39.547,0.766,42.48-10.166,56.541-10.166
	c18.257,0,25.424,9.744,34.359,9.854v8.266l-285.395-1.219"/>
<image width="100%" height="100%" class="member-photo" xlink:href="./min_photo.png"/>
<text transform="matrix(1.0718 0 0 1 186.0098 62.77)" class="name" fill="#994639" stroke="#994639" stroke-width="0.5" stroke-miterlimit="10" font-family="Gen Jyuu Gothic P" font-weight="bold" font-size="17.201">Min Wang</text>
<g class="intro" fill="#FFFDFD" font-family="Gen Jyuu Gothic P" font-size="6.4891">
    <text x="177.1758" y="118.6318" textLength="132">I&apos;m interested in UI/UX design. Listening</text>
    <text x="177.1758" y="131.6104" textLength="132">to music is a great enjoyment for me. I </text>
    <text x="177.1758" y="144.5879" textLength="132">hope that through the game, people can</text>
    <text x="177.1758" y="157.5664" textLength="132">enjoy music in different ways, and I will try</text>
    <text x="177.1758" y="170.5439" >my best in the project.</text>
</g>
</svg>
