<?xml version="1.0" encoding="utf-8"?>
<!-- Generator: Adobe Illustrator 16.0.0, SVG Export Plug-In . SVG Version: 6.00 Build 0)  -->
<!DOCTYPE svg PUBLIC "-//W3C//DTD SVG 1.1//EN" "http://www.w3.org/Graphics/SVG/1.1/DTD/svg11.dtd">
<svg version="1.1" id="圖層_1" xmlns="http://www.w3.org/2000/svg" xmlns:xlink="http://www.w3.org/1999/xlink" x="0px" y="0px"
	 width="565px" height="276px" viewBox="0 0 565 276" enable-background="new 0 0 565 276"
	 xml:space="preserve">
<rect fill="#8B4896" width="565.695" height="275.999"/>
<circle fill="#8F549B" cx="202.885" cy="53.486" r="5.667"/>
<circle fill="#8F549B" cx="197.218" cy="105.236" r="5.667"/>
<circle fill="#8F549B" cx="387.552" cy="45.236" r="5.667"/>
<circle fill="#8F549B" cx="443.218" cy="10.236" r="5.667"/>
<circle fill="#8F549B" cx="546.218" cy="31.736" r="5.667"/>
<circle fill="#8F549B" cx="516.218" cy="130.402" r="5.667"/>
<circle fill="#8F549B" cx="402.884" cy="116.57" r="5.667"/>
<circle fill="#8F549B" cx="475.675" cy="216.816" r="5.667"/>
<circle fill="#8F549B" cx="546.218" cy="257.63" r="5.667"/>
<circle fill="#8F549B" cx="263.346" cy="174.376" r="5.667"/>
<circle fill="#8F549B" cx="248.885" cy="228.15" r="5.667"/>
<circle fill="#8F549B" cx="358.499" cy="205.482" r="5.667"/>
<circle fill="#8F549B" cx="137.552" cy="148.902" r="5.667"/>
<circle fill="#8F549B" cx="56.219" cy="160.236" r="5.667"/>
<circle fill="#8F549B" cx="13.611" cy="99.569" r="5.667"/>
<circle fill="#8F549B" cx="114.635" cy="31.736" r="5.667"/>
<circle fill="none" stroke="#8F549B" stroke-width="2" stroke-miterlimit="10" cx="101.87" cy="88.235" r="5.667"/>
<circle fill="none" stroke="#8F549B" stroke-width="2" stroke-miterlimit="10" cx="56.219" cy="12.716" r="5.667"/>
<circle fill="none" stroke="#8F549B" stroke-width="2" stroke-miterlimit="10" cx="90.536" cy="246.295" r="5.667"/>
<circle fill="none" stroke="#8F549B" stroke-width="2" stroke-miterlimit="10" cx="291.846" cy="42.174" r="5.667"/>
<circle fill="none" stroke="#8F549B" stroke-width="2" stroke-miterlimit="10" cx="475.675" cy="70.273" r="5.667"/>
<circle fill="none" stroke="#8F549B" stroke-width="2" stroke-miterlimit="10" cx="536.475" cy="184.083" r="5.667"/>
<circle fill="none" stroke="#8F549B" stroke-width="2" stroke-miterlimit="10" cx="429.936" cy="251.962" r="5.667"/>
<circle fill="none" stroke="#8F549B" stroke-width="2" stroke-miterlimit="10" cx="304.604" cy="128.191" r="5.667"/>
<line fill="none" stroke="#8F549B" stroke-width="3" stroke-miterlimit="10" x1="280.636" y1="78.323" x2="295.136" y2="85.823"/>
<line fill="none" stroke="#8F549B" stroke-width="3" stroke-miterlimit="10" x1="172.691" y1="104.666" x2="183.222" y2="117.14"/>
<line fill="none" stroke="#8F549B" stroke-width="3" stroke-miterlimit="10" x1="337.871" y1="20.156" x2="355.219" y2="27.656"/>
<line fill="none" stroke="#8F549B" stroke-width="3" stroke-miterlimit="10" x1="423.506" y1="189.925" x2="434.248" y2="174.376"/>
<line fill="none" stroke="#8F549B" stroke-width="3" stroke-miterlimit="10" x1="345.044" y1="168.011" x2="355.786" y2="152.462"/>
<line fill="none" stroke="#8F549B" stroke-width="3" stroke-miterlimit="10" x1="250.18" y1="162.981" x2="241.574" y2="146.155"/>
<line fill="none" stroke="#8F549B" stroke-width="3" stroke-miterlimit="10" x1="492.07" y1="17.096" x2="497.999" y2="35.042"/>
<line fill="none" stroke="#8F549B" stroke-width="3" stroke-miterlimit="10" x1="551.998" y1="75.093" x2="540.438" y2="90.043"/>
<line fill="none" stroke="#8F549B" stroke-width="3" stroke-miterlimit="10" x1="433.043" y1="46.011" x2="424.404" y2="57.181"/>
<line fill="none" stroke="#8F549B" stroke-width="3" stroke-miterlimit="10" x1="519.188" y1="236.532" x2="510.551" y2="247.702"/>
<line fill="none" stroke="#8F549B" stroke-width="3" stroke-miterlimit="10" x1="353.111" y1="243.372" x2="365.964" y2="249.22"/>
<line fill="none" stroke="#8F549B" stroke-width="3" stroke-miterlimit="10" x1="423.055" y1="101.486" x2="434.699" y2="116.373"/>
<line fill="none" stroke="#8F549B" stroke-width="3" stroke-miterlimit="10" x1="180.774" y1="39.499" x2="191.551" y2="23.973"/>
<line fill="none" stroke="#8F549B" stroke-width="3" stroke-miterlimit="10" x1="258.459" y1="20.479" x2="269.236" y2="4.953"/>
<line fill="none" stroke="#8F549B" stroke-width="3" stroke-miterlimit="10" x1="60.373" y1="57.18" x2="77.431" y2="65.318"/>
<line fill="none" stroke="#8F549B" stroke-width="3" stroke-miterlimit="10" x1="11.852" y1="28.118" x2="15.369" y2="46.688"/>
<line fill="none" stroke="#8F549B" stroke-width="3" stroke-miterlimit="10" x1="77.431" y1="133.875" x2="86.274" y2="119.186"/>
<line fill="none" stroke="#8F549B" stroke-width="3" stroke-miterlimit="10" x1="31.544" y1="217.847" x2="47.812" y2="212.431"/>
<line fill="none" stroke="#8F549B" stroke-width="3" stroke-miterlimit="10" x1="122.061" y1="268.406" x2="131.761" y2="254.269"/>
<line fill="none" stroke="#8F549B" stroke-width="3" stroke-miterlimit="10" x1="198.035" y1="256.255" x2="207.736" y2="242.117"/>
<line fill="none" stroke="#8F549B" stroke-width="3" stroke-miterlimit="10" x1="175.506" y1="186.063" x2="185.207" y2="171.926"/>
</svg>
